<?xml version="1.0" standalone="no"?>
<!DOCTYPE svg PUBLIC "-//W3C//DTD SVG 20010904//EN"
 "http://www.w3.org/TR/2001/REC-SVG-20010904/DTD/svg10.dtd">
<svg version="1.0" xmlns="http://www.w3.org/2000/svg"
 width="420.000000pt" height="420.000000pt" viewBox="0 0 420.000000 420.000000"
 preserveAspectRatio="xMidYMid meet">
<metadata>
Created by potrace 1.14, written by Peter Selinger 2001-2017
</metadata>
<g transform="translate(0.000000,420.000000) scale(0.100000,-0.100000)"
fill="#000000" stroke="none">
<path d="M1903 3669 c-12 -12 -34 -23 -50 -25 -57 -6 -93 -15 -93 -24 0 -4
-22 -16 -50 -25 -59 -20 -116 -80 -126 -134 -4 -20 -21 -50 -40 -69 -22 -23
-35 -48 -39 -76 -4 -25 -18 -55 -35 -74 -22 -26 -27 -39 -23 -69 2 -22 -4 -62
-15 -93 -10 -30 -16 -68 -14 -85 7 -47 3 -99 -8 -112 -2 -2 -3 -6 -5 -10 -1
-5 -5 -16 -9 -25 -4 -9 -9 -25 -11 -35 -2 -10 -4 -18 -5 -18 -1 0 -3 -7 -5
-15 -4 -14 -6 -25 -20 -90 -3 -14 -8 -38 -10 -55 -3 -16 -7 -41 -10 -55 -3
-14 -7 -41 -10 -60 -3 -19 -7 -51 -10 -70 -2 -19 -5 -54 -6 -77 l-2 -42 -25
20 c-14 10 -28 19 -32 19 -11 0 -55 -47 -56 -59 -1 -6 -2 -12 -4 -13 -17 -22
-29 -365 -15 -433 10 -49 31 -74 60 -70 31 3 33 0 39 -85 7 -98 16 -147 42
-237 24 -83 72 -195 86 -201 4 -2 8 -9 8 -15 0 -11 65 -115 79 -127 3 -3 19
-23 36 -45 62 -85 199 -210 265 -243 77 -38 96 -43 175 -43 127 -1 328 62 495
153 127 70 212 140 300 247 19 23 44 53 55 65 11 12 31 37 44 54 38 51 104
118 129 131 16 9 32 9 60 1 54 -15 58 -14 101 25 40 37 136 217 147 278 1 4 2
8 4 10 4 5 14 59 24 132 6 43 -29 106 -62 113 -7 1 -28 -4 -48 -13 -19 -8 -32
-10 -29 -4 4 5 9 22 11 37 3 15 11 52 19 82 8 30 17 71 20 90 3 19 10 51 15
70 5 19 12 49 14 65 3 17 8 41 11 55 13 57 20 131 20 220 0 101 -12 144 -63
219 -20 31 -22 42 -16 102 6 62 4 73 -20 113 -44 76 -144 169 -246 231 -52 31
-99 63 -103 71 -4 8 -13 14 -18 14 -6 0 -17 6 -24 13 -33 29 -72 54 -107 70
-16 6 -28 15 -28 20 0 4 -4 5 -10 2 -5 -3 -10 -2 -10 3 0 10 -88 39 -103 34
-5 -1 -21 7 -37 18 -15 11 -33 20 -39 20 -6 0 -11 4 -11 10 0 13 -63 31 -130
37 -30 3 -80 17 -110 31 -62 28 -71 29 -118 18 -26 -6 -44 -3 -80 16 -26 12
-48 26 -50 31 -7 15 -48 6 -69 -14z"/>
</g>
</svg>
